<mxfile host="Electron" agent="Mozilla/5.0 (Windows NT 10.0; Win64; x64) AppleWebKit/537.36 (KHTML, like Gecko) draw.io/25.0.2 Chrome/128.0.6613.186 Electron/32.2.5 Safari/537.36" version="25.0.2">
  <diagram id="C5RBs43oDa-KdzZeNtuy" name="Page-1">
    <mxGraphModel dx="913" dy="540" grid="1" gridSize="10" guides="1" tooltips="1" connect="1" arrows="1" fold="1" page="1" pageScale="1" pageWidth="827" pageHeight="1169" math="0" shadow="0">
      <root>
        <mxCell id="WIyWlLk6GJQsqaUBKTNV-0" />
        <mxCell id="WIyWlLk6GJQsqaUBKTNV-1" parent="WIyWlLk6GJQsqaUBKTNV-0" />
        <mxCell id="Fu0xhGwjP3GAUJQkNX9t-16" value="" style="group;movable=0;resizable=0;rotatable=0;deletable=0;editable=0;locked=1;connectable=0;" vertex="1" connectable="0" parent="WIyWlLk6GJQsqaUBKTNV-1">
          <mxGeometry x="220.00000000000006" y="94.88" width="454.99999999999994" height="685.12" as="geometry" />
        </mxCell>
        <mxCell id="Fu0xhGwjP3GAUJQkNX9t-13" value="" style="rounded=0;whiteSpace=wrap;html=1;rotation=90;movable=1;resizable=1;rotatable=1;deletable=1;editable=1;locked=0;connectable=1;" vertex="1" parent="Fu0xhGwjP3GAUJQkNX9t-16">
          <mxGeometry x="-228.44000000000005" y="228.44" width="681.88" height="225" as="geometry" />
        </mxCell>
        <mxCell id="Fu0xhGwjP3GAUJQkNX9t-14" value="" style="rounded=0;whiteSpace=wrap;html=1;rotation=90;movable=1;resizable=1;rotatable=1;deletable=1;editable=1;locked=0;connectable=1;" vertex="1" parent="Fu0xhGwjP3GAUJQkNX9t-16">
          <mxGeometry x="-2.500000000000057" y="227.62" width="685" height="230" as="geometry" />
        </mxCell>
        <mxCell id="Fu0xhGwjP3GAUJQkNX9t-15" value="" style="endArrow=none;html=1;rounded=0;exitX=0.083;exitY=1.006;exitDx=0;exitDy=0;exitPerimeter=0;entryX=0.081;entryY=0.002;entryDx=0;entryDy=0;entryPerimeter=0;movable=1;resizable=1;rotatable=1;deletable=1;editable=1;locked=0;connectable=1;" edge="1" parent="Fu0xhGwjP3GAUJQkNX9t-16" source="Fu0xhGwjP3GAUJQkNX9t-13" target="Fu0xhGwjP3GAUJQkNX9t-14">
          <mxGeometry width="50" height="50" relative="1" as="geometry">
            <mxPoint x="239.99999999999994" y="165.12" as="sourcePoint" />
            <mxPoint x="289.99999999999994" y="115.12" as="targetPoint" />
          </mxGeometry>
        </mxCell>
        <mxCell id="Fu0xhGwjP3GAUJQkNX9t-17" value="" style="ellipse;html=1;shape=startState;fillColor=#000000;strokeColor=#000000;" vertex="1" parent="WIyWlLk6GJQsqaUBKTNV-1">
          <mxGeometry x="430" y="150" width="30" height="30" as="geometry" />
        </mxCell>
        <mxCell id="Fu0xhGwjP3GAUJQkNX9t-19" value="Student" style="text;html=1;align=center;verticalAlign=middle;whiteSpace=wrap;rounded=0;" vertex="1" parent="WIyWlLk6GJQsqaUBKTNV-1">
          <mxGeometry x="310" y="110" width="60" height="30" as="geometry" />
        </mxCell>
        <mxCell id="Fu0xhGwjP3GAUJQkNX9t-20" value="Admin" style="text;html=1;align=center;verticalAlign=middle;whiteSpace=wrap;rounded=0;" vertex="1" parent="WIyWlLk6GJQsqaUBKTNV-1">
          <mxGeometry x="520" y="110" width="60" height="30" as="geometry" />
        </mxCell>
        <mxCell id="Fu0xhGwjP3GAUJQkNX9t-21" value="Login" style="rounded=1;whiteSpace=wrap;html=1;" vertex="1" parent="WIyWlLk6GJQsqaUBKTNV-1">
          <mxGeometry x="510" y="240" width="120" height="20" as="geometry" />
        </mxCell>
        <mxCell id="Fu0xhGwjP3GAUJQkNX9t-22" value="is verify?" style="rhombus;whiteSpace=wrap;html=1;" vertex="1" parent="WIyWlLk6GJQsqaUBKTNV-1">
          <mxGeometry x="530" y="280" width="80" height="80" as="geometry" />
        </mxCell>
        <mxCell id="Fu0xhGwjP3GAUJQkNX9t-23" value="" style="endArrow=classic;html=1;rounded=0;exitX=0.5;exitY=1;exitDx=0;exitDy=0;" edge="1" parent="WIyWlLk6GJQsqaUBKTNV-1" source="Fu0xhGwjP3GAUJQkNX9t-21">
          <mxGeometry width="50" height="50" relative="1" as="geometry">
            <mxPoint x="380" y="300" as="sourcePoint" />
            <mxPoint x="570" y="280" as="targetPoint" />
          </mxGeometry>
        </mxCell>
        <mxCell id="Fu0xhGwjP3GAUJQkNX9t-25" value="Initialize Voting" style="rounded=1;whiteSpace=wrap;html=1;" vertex="1" parent="WIyWlLk6GJQsqaUBKTNV-1">
          <mxGeometry x="450" y="390" width="120" height="60" as="geometry" />
        </mxCell>
        <mxCell id="Fu0xhGwjP3GAUJQkNX9t-26" value="Add Candidate" style="rounded=1;whiteSpace=wrap;html=1;" vertex="1" parent="WIyWlLk6GJQsqaUBKTNV-1">
          <mxGeometry x="450" y="490" width="120" height="50" as="geometry" />
        </mxCell>
        <mxCell id="Fu0xhGwjP3GAUJQkNX9t-27" value="" style="endArrow=classic;html=1;rounded=0;exitX=0.5;exitY=1;exitDx=0;exitDy=0;entryX=0.5;entryY=0;entryDx=0;entryDy=0;" edge="1" parent="WIyWlLk6GJQsqaUBKTNV-1" source="Fu0xhGwjP3GAUJQkNX9t-25" target="Fu0xhGwjP3GAUJQkNX9t-26">
          <mxGeometry width="50" height="50" relative="1" as="geometry">
            <mxPoint x="380" y="520" as="sourcePoint" />
            <mxPoint x="430" y="470" as="targetPoint" />
          </mxGeometry>
        </mxCell>
        <mxCell id="Fu0xhGwjP3GAUJQkNX9t-28" value="Log Out" style="rounded=1;whiteSpace=wrap;html=1;" vertex="1" parent="WIyWlLk6GJQsqaUBKTNV-1">
          <mxGeometry x="450" y="570" width="120" height="40" as="geometry" />
        </mxCell>
        <mxCell id="Fu0xhGwjP3GAUJQkNX9t-29" value="" style="endArrow=classic;html=1;rounded=0;exitX=0.5;exitY=1;exitDx=0;exitDy=0;" edge="1" parent="WIyWlLk6GJQsqaUBKTNV-1" source="Fu0xhGwjP3GAUJQkNX9t-26">
          <mxGeometry width="50" height="50" relative="1" as="geometry">
            <mxPoint x="380" y="610" as="sourcePoint" />
            <mxPoint x="510" y="570" as="targetPoint" />
          </mxGeometry>
        </mxCell>
        <mxCell id="Fu0xhGwjP3GAUJQkNX9t-31" value="Enter Student Id" style="rounded=1;whiteSpace=wrap;html=1;" vertex="1" parent="WIyWlLk6GJQsqaUBKTNV-1">
          <mxGeometry x="270" y="510" width="120" height="40" as="geometry" />
        </mxCell>
        <mxCell id="Fu0xhGwjP3GAUJQkNX9t-32" value="Enter Vote" style="rounded=1;whiteSpace=wrap;html=1;" vertex="1" parent="WIyWlLk6GJQsqaUBKTNV-1">
          <mxGeometry x="270" y="570" width="120" height="40" as="geometry" />
        </mxCell>
        <mxCell id="Fu0xhGwjP3GAUJQkNX9t-33" value="" style="endArrow=classic;html=1;rounded=0;exitX=0.5;exitY=1;exitDx=0;exitDy=0;entryX=0.5;entryY=0;entryDx=0;entryDy=0;" edge="1" parent="WIyWlLk6GJQsqaUBKTNV-1" source="Fu0xhGwjP3GAUJQkNX9t-31" target="Fu0xhGwjP3GAUJQkNX9t-32">
          <mxGeometry width="50" height="50" relative="1" as="geometry">
            <mxPoint x="380" y="680" as="sourcePoint" />
            <mxPoint x="430" y="630" as="targetPoint" />
          </mxGeometry>
        </mxCell>
        <mxCell id="Fu0xhGwjP3GAUJQkNX9t-38" value="Admin Panel" style="rounded=1;whiteSpace=wrap;html=1;" vertex="1" parent="WIyWlLk6GJQsqaUBKTNV-1">
          <mxGeometry x="510" y="174" width="120" height="20" as="geometry" />
        </mxCell>
        <mxCell id="Fu0xhGwjP3GAUJQkNX9t-40" value="Enter Student Panel" style="rounded=1;whiteSpace=wrap;html=1;" vertex="1" parent="WIyWlLk6GJQsqaUBKTNV-1">
          <mxGeometry x="270" y="450" width="120" height="40" as="geometry" />
        </mxCell>
        <mxCell id="Fu0xhGwjP3GAUJQkNX9t-41" value="" style="endArrow=classic;html=1;rounded=0;exitX=0.5;exitY=1;exitDx=0;exitDy=0;" edge="1" parent="WIyWlLk6GJQsqaUBKTNV-1" source="Fu0xhGwjP3GAUJQkNX9t-40" target="Fu0xhGwjP3GAUJQkNX9t-31">
          <mxGeometry width="50" height="50" relative="1" as="geometry">
            <mxPoint x="340" y="560" as="sourcePoint" />
            <mxPoint x="340" y="580" as="targetPoint" />
          </mxGeometry>
        </mxCell>
        <mxCell id="Fu0xhGwjP3GAUJQkNX9t-46" value="" style="html=1;points=[];perimeter=orthogonalPerimeter;fillColor=strokeColor;rotation=90;" vertex="1" parent="WIyWlLk6GJQsqaUBKTNV-1">
          <mxGeometry x="500" y="330" width="2.5" height="50" as="geometry" />
        </mxCell>
        <mxCell id="Fu0xhGwjP3GAUJQkNX9t-47" value="" style="endArrow=classic;html=1;rounded=0;exitX=0;exitY=0.5;exitDx=0;exitDy=0;entryX=0.706;entryY=0.509;entryDx=0;entryDy=0;entryPerimeter=0;" edge="1" parent="WIyWlLk6GJQsqaUBKTNV-1" source="Fu0xhGwjP3GAUJQkNX9t-22" target="Fu0xhGwjP3GAUJQkNX9t-46">
          <mxGeometry width="50" height="50" relative="1" as="geometry">
            <mxPoint x="400" y="450" as="sourcePoint" />
            <mxPoint x="450" y="400" as="targetPoint" />
            <Array as="points">
              <mxPoint x="500" y="320" />
            </Array>
          </mxGeometry>
        </mxCell>
        <mxCell id="Fu0xhGwjP3GAUJQkNX9t-48" value="" style="endArrow=classic;html=1;rounded=0;exitX=0.34;exitY=0.363;exitDx=0;exitDy=0;exitPerimeter=0;entryX=0.5;entryY=0;entryDx=0;entryDy=0;" edge="1" parent="WIyWlLk6GJQsqaUBKTNV-1" source="Fu0xhGwjP3GAUJQkNX9t-46" target="Fu0xhGwjP3GAUJQkNX9t-25">
          <mxGeometry width="50" height="50" relative="1" as="geometry">
            <mxPoint x="400" y="450" as="sourcePoint" />
            <mxPoint x="450" y="400" as="targetPoint" />
          </mxGeometry>
        </mxCell>
        <mxCell id="Fu0xhGwjP3GAUJQkNX9t-49" value="View Result" style="rounded=1;whiteSpace=wrap;html=1;" vertex="1" parent="WIyWlLk6GJQsqaUBKTNV-1">
          <mxGeometry x="590" y="390" width="70" height="20" as="geometry" />
        </mxCell>
        <mxCell id="Fu0xhGwjP3GAUJQkNX9t-50" value="" style="endArrow=classic;html=1;rounded=0;exitX=0.889;exitY=0.189;exitDx=0;exitDy=0;exitPerimeter=0;entryX=0.5;entryY=0;entryDx=0;entryDy=0;" edge="1" parent="WIyWlLk6GJQsqaUBKTNV-1" source="Fu0xhGwjP3GAUJQkNX9t-46" target="Fu0xhGwjP3GAUJQkNX9t-49">
          <mxGeometry width="50" height="50" relative="1" as="geometry">
            <mxPoint x="518" y="365" as="sourcePoint" />
            <mxPoint x="520" y="400" as="targetPoint" />
            <Array as="points">
              <mxPoint x="517" y="370" />
              <mxPoint x="625" y="370" />
            </Array>
          </mxGeometry>
        </mxCell>
        <mxCell id="Fu0xhGwjP3GAUJQkNX9t-51" value="" style="html=1;points=[];perimeter=orthogonalPerimeter;fillColor=strokeColor;rotation=90;" vertex="1" parent="WIyWlLk6GJQsqaUBKTNV-1">
          <mxGeometry x="568.75" y="201.75" width="2.5" height="30" as="geometry" />
        </mxCell>
        <mxCell id="Fu0xhGwjP3GAUJQkNX9t-52" value="" style="endArrow=classic;html=1;rounded=0;exitX=0.5;exitY=1;exitDx=0;exitDy=0;entryX=0.209;entryY=0.506;entryDx=0;entryDy=0;entryPerimeter=0;" edge="1" parent="WIyWlLk6GJQsqaUBKTNV-1" source="Fu0xhGwjP3GAUJQkNX9t-38" target="Fu0xhGwjP3GAUJQkNX9t-51">
          <mxGeometry width="50" height="50" relative="1" as="geometry">
            <mxPoint x="410" y="160" as="sourcePoint" />
            <mxPoint x="460" y="110" as="targetPoint" />
          </mxGeometry>
        </mxCell>
        <mxCell id="Fu0xhGwjP3GAUJQkNX9t-53" value="" style="endArrow=classic;html=1;rounded=0;exitX=0.666;exitY=0.475;exitDx=0;exitDy=0;entryX=0.5;entryY=0;entryDx=0;entryDy=0;exitPerimeter=0;" edge="1" parent="WIyWlLk6GJQsqaUBKTNV-1" source="Fu0xhGwjP3GAUJQkNX9t-51" target="Fu0xhGwjP3GAUJQkNX9t-21">
          <mxGeometry width="50" height="50" relative="1" as="geometry">
            <mxPoint x="580" y="210" as="sourcePoint" />
            <mxPoint x="580" y="227" as="targetPoint" />
          </mxGeometry>
        </mxCell>
        <mxCell id="Fu0xhGwjP3GAUJQkNX9t-54" value="" style="endArrow=classic;html=1;rounded=0;exitX=1;exitY=0.5;exitDx=0;exitDy=0;entryX=0.051;entryY=0.17;entryDx=0;entryDy=0;entryPerimeter=0;" edge="1" parent="WIyWlLk6GJQsqaUBKTNV-1" source="Fu0xhGwjP3GAUJQkNX9t-22" target="Fu0xhGwjP3GAUJQkNX9t-51">
          <mxGeometry width="50" height="50" relative="1" as="geometry">
            <mxPoint x="410" y="340" as="sourcePoint" />
            <mxPoint x="460" y="290" as="targetPoint" />
            <Array as="points">
              <mxPoint x="650" y="320" />
              <mxPoint x="650" y="200" />
              <mxPoint x="580" y="200" />
            </Array>
          </mxGeometry>
        </mxCell>
        <mxCell id="Fu0xhGwjP3GAUJQkNX9t-55" value="" style="html=1;points=[];perimeter=orthogonalPerimeter;fillColor=strokeColor;rotation=90;" vertex="1" parent="WIyWlLk6GJQsqaUBKTNV-1">
          <mxGeometry x="442.5" y="190" width="5" height="80" as="geometry" />
        </mxCell>
        <mxCell id="Fu0xhGwjP3GAUJQkNX9t-56" value="" style="endArrow=classic;html=1;rounded=0;" edge="1" parent="WIyWlLk6GJQsqaUBKTNV-1" source="Fu0xhGwjP3GAUJQkNX9t-17">
          <mxGeometry width="50" height="50" relative="1" as="geometry">
            <mxPoint x="453.97999999999996" y="173.99999999999997" as="sourcePoint" />
            <mxPoint x="447.5" y="231.54999999999998" as="targetPoint" />
          </mxGeometry>
        </mxCell>
        <mxCell id="Fu0xhGwjP3GAUJQkNX9t-57" value="" style="endArrow=classic;html=1;rounded=0;exitX=0.643;exitY=0.62;exitDx=0;exitDy=0;exitPerimeter=0;entryX=0.5;entryY=0;entryDx=0;entryDy=0;" edge="1" parent="WIyWlLk6GJQsqaUBKTNV-1" source="Fu0xhGwjP3GAUJQkNX9t-55" target="Fu0xhGwjP3GAUJQkNX9t-40">
          <mxGeometry width="50" height="50" relative="1" as="geometry">
            <mxPoint x="420" y="290" as="sourcePoint" />
            <mxPoint x="470" y="240" as="targetPoint" />
          </mxGeometry>
        </mxCell>
        <mxCell id="Fu0xhGwjP3GAUJQkNX9t-58" value="" style="endArrow=classic;html=1;rounded=0;exitX=1.009;exitY=0.471;exitDx=0;exitDy=0;exitPerimeter=0;entryX=0.54;entryY=-0.021;entryDx=0;entryDy=0;entryPerimeter=0;" edge="1" parent="WIyWlLk6GJQsqaUBKTNV-1" source="Fu0xhGwjP3GAUJQkNX9t-55" target="Fu0xhGwjP3GAUJQkNX9t-38">
          <mxGeometry width="50" height="50" relative="1" as="geometry">
            <mxPoint x="445" y="241" as="sourcePoint" />
            <mxPoint x="340" y="460" as="targetPoint" />
            <Array as="points">
              <mxPoint x="450" y="260" />
              <mxPoint x="500" y="260" />
              <mxPoint x="500" y="160" />
              <mxPoint x="575" y="160" />
            </Array>
          </mxGeometry>
        </mxCell>
        <mxCell id="Fu0xhGwjP3GAUJQkNX9t-59" value="" style="html=1;points=[];perimeter=orthogonalPerimeter;fillColor=strokeColor;rotation=90;" vertex="1" parent="WIyWlLk6GJQsqaUBKTNV-1">
          <mxGeometry x="445" y="660" width="5" height="80" as="geometry" />
        </mxCell>
        <mxCell id="Fu0xhGwjP3GAUJQkNX9t-60" value="" style="endArrow=classic;html=1;rounded=0;exitX=0.5;exitY=1;exitDx=0;exitDy=0;entryX=0.54;entryY=0.485;entryDx=0;entryDy=0;entryPerimeter=0;" edge="1" parent="WIyWlLk6GJQsqaUBKTNV-1" source="Fu0xhGwjP3GAUJQkNX9t-32" target="Fu0xhGwjP3GAUJQkNX9t-59">
          <mxGeometry width="50" height="50" relative="1" as="geometry">
            <mxPoint x="430" y="640" as="sourcePoint" />
            <mxPoint x="480" y="590" as="targetPoint" />
          </mxGeometry>
        </mxCell>
        <mxCell id="Fu0xhGwjP3GAUJQkNX9t-61" value="" style="endArrow=classic;html=1;rounded=0;entryX=-0.1;entryY=0.485;entryDx=0;entryDy=0;entryPerimeter=0;exitX=0.5;exitY=1;exitDx=0;exitDy=0;" edge="1" parent="WIyWlLk6GJQsqaUBKTNV-1" source="Fu0xhGwjP3GAUJQkNX9t-28" target="Fu0xhGwjP3GAUJQkNX9t-59">
          <mxGeometry width="50" height="50" relative="1" as="geometry">
            <mxPoint x="430" y="600" as="sourcePoint" />
            <mxPoint x="480" y="550" as="targetPoint" />
          </mxGeometry>
        </mxCell>
        <mxCell id="Fu0xhGwjP3GAUJQkNX9t-62" value="" style="endArrow=classic;html=1;rounded=0;exitX=0.5;exitY=1;exitDx=0;exitDy=0;" edge="1" parent="WIyWlLk6GJQsqaUBKTNV-1" source="Fu0xhGwjP3GAUJQkNX9t-49">
          <mxGeometry width="50" height="50" relative="1" as="geometry">
            <mxPoint x="430" y="600" as="sourcePoint" />
            <mxPoint x="450" y="700" as="targetPoint" />
            <Array as="points">
              <mxPoint x="620" y="640" />
            </Array>
          </mxGeometry>
        </mxCell>
        <mxCell id="Fu0xhGwjP3GAUJQkNX9t-63" value="" style="ellipse;html=1;shape=endState;fillColor=#000000;strokeColor=#ff0000;" vertex="1" parent="WIyWlLk6GJQsqaUBKTNV-1">
          <mxGeometry x="430" y="740" width="30" height="30" as="geometry" />
        </mxCell>
        <mxCell id="Fu0xhGwjP3GAUJQkNX9t-64" value="" style="endArrow=classic;html=1;rounded=0;entryX=0.5;entryY=0;entryDx=0;entryDy=0;exitX=0.892;exitY=-0.004;exitDx=0;exitDy=0;exitPerimeter=0;" edge="1" parent="WIyWlLk6GJQsqaUBKTNV-1" source="Fu0xhGwjP3GAUJQkNX9t-13" target="Fu0xhGwjP3GAUJQkNX9t-63">
          <mxGeometry width="50" height="50" relative="1" as="geometry">
            <mxPoint x="430" y="680" as="sourcePoint" />
            <mxPoint x="480" y="630" as="targetPoint" />
          </mxGeometry>
        </mxCell>
        <mxCell id="Fu0xhGwjP3GAUJQkNX9t-65" value="yes" style="text;html=1;align=center;verticalAlign=middle;whiteSpace=wrap;rounded=0;" vertex="1" parent="WIyWlLk6GJQsqaUBKTNV-1">
          <mxGeometry x="480" y="290" width="60" height="30" as="geometry" />
        </mxCell>
        <mxCell id="Fu0xhGwjP3GAUJQkNX9t-66" value="No" style="text;html=1;align=center;verticalAlign=middle;whiteSpace=wrap;rounded=0;" vertex="1" parent="WIyWlLk6GJQsqaUBKTNV-1">
          <mxGeometry x="595" y="290" width="60" height="30" as="geometry" />
        </mxCell>
      </root>
    </mxGraphModel>
  </diagram>
</mxfile>
